#!OML:ASF H:\Dans Jumps\Project 1\Capture day 1\Session 1\subject.ASF
:FULLY-SPECIFIED
:DEGREES
101
root 0.271979 17.5838 -13.8659 7.16419 0.393842 -1.28681
lowerback -2.92837 -0.265166 0.0862348
upperback 2.68773 -0.417924 1.4738
thorax 4.42501 -0.230299 1.4452
lowerneck -13.9712 0.125282 -1.94356
upperneck 29.419 0.303126 1.32132
head 11.9544 0.0884684 0.873786
rclavicle -3.13086e-015 -3.18055e-015
rhumerus -20.5461 -18.2686 -82.984
rradius 20.6666
rwrist 38.1066
rhand -19.0416 -26.686
rfingers 7.12502
rthumb 7.26499 -56.5413
lclavicle -3.13086e-015 -3.18055e-015
lhumerus -16.7889 -3.6322 90.9843
lradius 15.828
lwrist -2.36744
lhand -25.1958 -3.98519
lfingers 7.12502
lthumb 1.32243 25.9905
rfemur -12.2711 -3.05432 19.4978
rtibia 19.9611
rfoot -13.9001 -3.01377
rtoes 10.8726
lfemur -10.7095 6.64498 -17.6302
ltibia 17.1884
lfoot -10.4184 7.04705
ltoes -3.47649
102
root 0.271774 17.5834 -13.869 7.14611 0.379641 -1.28943
lowerback -2.93206 -0.266748 0.0897709
upperback 2.69603 -0.420292 1.47198
thorax 4.43576 -0.231391 1.44119
lowerneck -13.9947 0.12594 -1.94535
upperneck 29.439 0.305145 1.32054
head 11.9672 0.0889428 0.874362
rclavicle 5.96354e-016 1.98785e-016
rhumerus -20.3943 -18.0799 -83.0741
rradius 20.7791
rwrist 37.8949
rhand -19.0618 -26.6736
rfingers 7.12502
rthumb 7.24551 -56.5296
lclavicle 5.96354e-016 1.98785e-016
lhumerus -16.5939 -3.63042 90.9347
lradius 15.9154
lwrist -2.23959
lhand -25.2211 -3.97065
lfingers 7.12502
lthumb 1.29802 26.0051
rfemur -12.2697 -3.05149 19.5004
rtibia 19.9718
rfoot -13.8969 -3.00307
rtoes 10.8758
lfemur -10.7061 6.64026 -17.6258
ltibia 17.2055
lfoot -10.4144 7.06373
ltoes -3.48198
103
root 0.271678 17.583 -13.8719 7.12692 0.360163 -1.29411
lowerback -2.92807 -0.265917 0.0929441
upperback 2.69901 -0.419384 1.47288
thorax 4.43656 -0.230869 1.4404
lowerneck -14.0145 0.127278 -1.94774
upperneck 29.4617 0.308973 1.31739
head 11.9802 0.0898453 0.874427
rclavicle -2.33572e-015 -1.53064e-014
rhumerus -20.254 -17.8779 -83.1623
rradius 20.9028
rwrist 37.6683
rhand -19.1094 -26.6311
rfingers 7.12502
rthumb 7.19958 -56.4886
lclavicle -2.33572e-015 -1.53064e-014
lhumerus -16.4152 -3.64036 90.8974
lradius 16.0131
lwrist -2.11109
lhand -25.2548 -3.97864
lfingers 7.12502
lthumb 1.26551 25.9973
rfemur -12.2662 -3.04612 19.5043
rtibia 19.9804
rfoot -13.8938 -2.9885
rtoes 10.8814
lfemur -10.7009 6.63422 -17.6194
ltibia 17.2238
lfoot -10.4125 7.08541
ltoes -3.47873
104
root 0.271643 17.5826 -13.8748 7.10787 0.340777 -1.30024
lowerback -2.92366 -0.264402 0.0980602
upperback 2.70082 -0.417634 1.4737
thorax 4.43586 -0.229857 1.43851
lowerneck -14.0268 0.128433 -1.94934
upperneck 29.4801 0.311729 1.3157
head 11.99 0.0905586 0.874675
rclavicle -1.73937e-015 1.19271e-015
rhumerus -20.1185 -17.6678 -83.2537
rradius 21.0356
rwrist 37.436
rhand -19.1473 -26.5934
rfingers 7.12502
rthumb 7.16301 -56.4522
lclavicle -1.73937e-015 1.19271e-015
lhumerus -16.2453 -3.67418 90.8692
lradius 16.1188
lwrist -1.9735
lhand -25.2886 -3.98558
lfingers 7.12502
lthumb 1.23287 25.9906
rfemur -12.262 -3.0393 19.5091
rtibia 19.9867
rfoot -13.8904 -2.97325
rtoes 10.9014
lfemur -10.6968 6.62654 -17.6115
ltibia 17.2436
lfoot -10.4105 7.10721
ltoes -3.46538
105
root 0.271626 17.5822 -13.8778 7.08873 0.322203 -1.3084
lowerback -2.91812 -0.261941 0.105433
upperback 2.70136 -0.414699 1.47442
thorax 4.43315 -0.228173 1.43533
lowerneck -14.0322 0.129295 -1.95031
upperneck 29.4952 0.312856 1.31694
head 11.9971 0.0910038 0.875626
rclavicle 6.21202e-015 -1.98785e-016
rhumerus -19.9868 -17.4475 -83.3494
rradius 21.1754
rwrist 37.1864
rhand -19.2092 -26.5455
rfingers 7.12502
rthumb 7.10318 -56.4063
lclavicle 6.21202e-015 -1.98785e-016
lhumerus -16.0869 -3.73992 90.8509
lradius 16.2351
lwrist -1.81987
lhand -25.3226 -3.98794
lfingers 7.12502
lthumb 1.19998 25.9884
rfemur -12.2567 -3.03015 19.516
rtibia 19.9913
rfoot -13.887 -2.96036
rtoes 10.9253
lfemur -10.694 6.61862 -17.601
ltibia 17.2652
lfoot -10.4105 7.12707
ltoes -3.44399
106
root 0.271647 17.5818 -13.8809 7.07133 0.303244 -1.31702
lowerback -2.91348 -0.258616 0.112031
upperback 2.70056 -0.410585 1.47574
thorax 4.42954 -0.225931 1.43328
lowerneck -14.0283 0.129538 -1.95072
upperneck 29.5038 0.312774 1.31814
head 11.9997 0.0909943 0.876191
rclavicle 8.94531e-016 -5.76476e-015
rhumerus -19.8591 -17.2197 -83.447
rradius 21.3212
rwrist 36.9276
rhand -19.2674 -26.5119
rfingers 7.12502
rthumb 7.047 -56.3746
lclavicle 8.94531e-016 -5.76476e-015
lhumerus -15.9366 -3.82783 90.8426
lradius 16.3607
lwrist -1.65153
lhand -25.3587 -3.97658
lfingers 7.12502
lthumb 1.1651 26
rfemur -12.2532 -3.01881 19.5233
rtibia 19.9954
rfoot -13.8838 -2.94833
rtoes 10.9513
lfemur -10.6939 6.60881 -17.5906
ltibia 17.2876
lfoot -10.4073 7.15054
ltoes -3.43589
107
root 0.271712 17.5815 -13.884 7.05609 0.284017 -1.32647
lowerback -2.90816 -0.254077 0.119263
upperback 2.69698 -0.404831 1.47702
thorax 4.4226 -0.222836 1.43094
lowerneck -14.0165 0.1284 -1.95194
upperneck 29.5085 0.309816 1.32243
head 11.9991 0.0900227 0.877576
rclavicle 2.23633e-015 1.78906e-015
rhumerus -19.7355 -16.9858 -83.5461
rradius 21.4698
rwrist 36.6596
rhand -19.3012 -26.5098
rfingers 7.12502
rthumb 7.01439 -56.3736
lclavicle 2.23633e-015 1.78906e-015
lhumerus -15.7966 -3.9359 90.8435
lradius 16.4854
lwrist -1.48208
lhand -25.4111 -3.99272
lfingers 7.12502
lthumb 1.11451 25.9841
rfemur -12.2532 -3.00899 19.5316
rtibia 20.0003
rfoot -13.88 -2.93661
rtoes 10.9629
lfemur -10.6965 6.60159 -17.58
ltibia 17.3097
lfoot -10.402 7.17347
ltoes -3.44176
